<svg xmlns="http://www.w3.org/2000/svg" width="24" height="24" viewBox="0 0 24 24">
  <g fill="none" fill-rule="evenodd">
    <rect width="24" height="24"/>
    <path fill="#000" fill-rule="nonzero" d="M13.9102942,11.3209534 L7.63582254,17.9681402 C7.4465703,18.1686343 7.45532831,18.4844876 7.65539987,18.6741866 L8.38113525,19.3622966 C8.58152278,19.5522951 8.89799322,19.5438732 9.08799177,19.3434857 C9.08824754,19.3432159 9.08850302,19.3429459 9.08875819,19.3426755 L16.3641567,11.635105 C16.5497055,11.4385344 16.5454302,11.1300867 16.3545046,10.9387341 L9.07941911,3.64737885 C8.88437518,3.45189873 8.56779289,3.45154513 8.37231277,3.64658906 C8.37204921,3.64685203 8.37178595,3.64711529 8.37152298,3.64737885 L7.66505287,4.35542888 C7.47031696,4.55060029 7.47031696,4.86657401 7.66505287,5.06174543 L13.9102942,11.3209534 Z" transform="rotate(-90 12 11.5)"/>
  </g>
</svg>
