<svg xmlns="http://www.w3.org/2000/svg" width="24" height="24" viewBox="0 0 24 24">
  <g fill="none" fill-rule="evenodd">
    <rect width="24" height="24"/>
    <path fill="#000" fill-rule="nonzero" d="M19.5,11 L7.8,11 L13.0464466,5.75355339 C13.2417088,5.55829124 13.2417088,5.24170876 13.0464466,5.04644661 L12.3535534,4.35355339 C12.1582912,4.15829124 11.8417088,4.15829124 11.6464466,4.35355339 L4.35355339,11.6464466 C4.15829124,11.8417088 4.15829124,12.1582912 4.35355339,12.3535534 L11.6464466,19.6464466 C11.8417088,19.8417088 12.1582912,19.8417088 12.3535534,19.6464466 L13.0464466,18.9535534 C13.2417088,18.7582912 13.2417088,18.4417088 13.0464466,18.2464466 L7.8,13 L19.5,13 C19.7761424,13 20,12.7761424 20,12.5 L20,11.5 C20,11.2238576 19.7761424,11 19.5,11 Z"/>
  </g>
</svg>
