<svg xmlns="http://www.w3.org/2000/svg" width="128" height="128" viewBox="0 0 128 128">
  <path d="M64.0046302,104.132483 L13.4780331,108.552987 C10.1739127,108.84206 7.26126815,106.400331 6.97245942,103.099232 L0.522934456,29.3808242 C0.234125731,26.0797254 2.67851884,23.169316 5.98263927,22.8802429 L57.8321796,18.3439959 C58.9335531,18.2476383 59.9044346,19.061548 60.0007042,20.1619143 L61.1873153,33.7249409 C61.2094911,33.9784116 61.1830533,34.2337895 61.1094202,34.4773745 L58.3160304,43.7181653 C58.1791351,44.1710278 58.2073253,44.6576851 58.3955939,45.0916945 L65.4549271,61.3653422 C65.5865583,61.6687872 65.6408092,62.0001222 65.6128225,62.3296798 L64.6802517,73.3111373 C64.6705521,73.425354 64.6706983,73.5401908 64.6806885,73.6543793 L64.960403,76.8515306 L65.2253708,73.8229345 C65.235361,73.7087459 65.2551698,73.5956294 65.2845783,73.4848342 L68.1120883,62.8323411 C68.1969429,62.5126559 68.2010225,62.1769314 68.1239618,61.8552283 L63.9912259,44.6024014 C63.881008,44.1422779 63.9377699,43.6581202 64.151429,43.2359273 L68.5112068,34.6209576 C68.6261295,34.3938691 68.6965682,34.1469667 68.718744,33.8934961 L69.9053551,20.3304694 C70.0016246,19.2301032 70.9735501,18.4162847 72.0762113,18.5127551 L121.989831,22.8796309 C125.297815,23.169042 127.745339,26.0797254 127.456531,29.3808242 L121.007006,103.099232 C120.718197,106.400331 117.802421,108.841786 114.494437,108.552375 L64.106541,104.144005 C64.0723266,104.141012 64.0383488,104.137164 64.0046302,104.132483 Z M68.8907839,76.4548987 L68.0482429,86.0851865 C67.9904844,86.7453688 67.8232284,87.3913756 67.5532681,87.9969692 L64.7464615,94.293392 L65.8478593,100.281072 L114.845958,104.56785 C115.951609,104.664582 116.925957,103.850975 117.022227,102.750609 L123.471752,29.0322013 C123.568021,27.931835 122.749757,26.9613952 121.644106,26.8646633 L73.5971316,22.6610977 L72.584832,34.231735 C72.5183046,34.9921469 72.3065945,35.7328194 71.9610592,36.4140179 L70.9095073,38.4870785 L71.2417002,38.5161416 C73.3862273,38.7037634 75.4242591,39.5393538 77.0922525,40.9139255 L93.8543169,54.7051139 C95.1628536,55.7796517 96.7035837,56.5265232 98.3517599,56.8852568 L107.964913,59.033213 C110.682606,59.6211246 112.539187,62.1657542 112.296978,64.970741 L111.454209,74.6036429 C111.316495,76.0789767 110.605714,77.4397758 109.478236,78.3866673 C108.350759,79.3335588 106.898908,79.7894096 105.442131,79.6534454 L103.000542,79.4397861 C103.578132,72.837608 98.6942525,67.0172445 92.0920707,66.4396284 C85.4900442,65.8620259 79.6697848,70.7456448 79.0919103,77.3475821 L68.8907839,76.4548987 Z M90.3489558,86.3635224 C85.9474907,85.9784441 82.6915659,82.0981839 83.0766442,77.6967188 C83.4617225,73.2952537 87.3419826,70.0393289 91.7434477,70.4244072 C96.1449128,70.8094855 99.4008376,74.6897456 99.0157593,79.0912107 C98.630681,83.4926758 94.7504209,86.7486007 90.3489558,86.3635224 Z M55.7341581,38.6039458 L57.2232675,33.6851141 L56.2445372,22.498176 L6.3299839,26.8651336 C5.22730203,26.9616057 4.41144367,27.931835 4.50771325,29.0322013 L10.9572382,102.750609 C11.0535078,103.850975 12.02545,104.664792 13.1281318,104.56832 L61.5369779,100.333095 L59.8612584,96.397338 C59.3062384,95.0937642 59.2313533,93.6360966 59.6498588,92.2823626 L61.7543071,85.4751336 L60.9509454,76.292667 L48.8875865,77.3479434 C48.3098927,70.745823 42.4895413,65.8620154 35.8873945,66.4396284 C29.2853334,67.0172339 24.4015116,72.8373952 24.9788912,79.439424 L22.512725,79.6551589 C21.0476345,79.7967846 19.586278,79.3305837 18.4582601,78.3617065 C17.3302422,77.3928292 16.6305664,76.0028759 16.5166596,74.50538 L15.7457016,65.6932895 C15.5043884,62.9251269 16.3346158,60.1742932 18.0589699,58.0298571 L29.2068847,44.2334501 C31.0135447,41.9679713 33.64246,40.5450359 36.4983204,40.2868635 L55.7341581,38.6039458 Z M37.6305094,86.3635224 C33.2290442,86.7486007 29.3487841,83.4926758 28.9637058,79.0912107 C28.5786275,74.6897456 31.8345524,70.8094855 36.2360175,70.4244072 C40.6374826,70.0393289 44.5177427,73.2952537 44.902821,77.6967188 C45.2878993,82.0981839 42.0319745,85.9784441 37.6305094,86.3635224 Z"/>
</svg>
