<svg xmlns="http://www.w3.org/2000/svg" width="24" height="24" viewBox="0 0 24 24">
  <path d="M12,10.5831737 L18.2321629,4.35348324 C18.4275065,4.15835739 18.7440349,4.15838879 18.9393398,4.35355339 L19.6464466,5.06066017 C19.8416112,5.25596508 19.8416426,5.57249347 19.6465168,5.76783709 L13.4171073,11.9997188 L19.6463765,18.2265168 L19.6465167,18.2265167 C19.8417789,18.4217789 19.8417789,18.7383614 19.6464466,18.9335534 L18.9335534,19.6464466 L18.9335534,19.6465869 C18.7382525,19.8418103 18.42167,19.8417475 18.2265168,19.6463765 L12,13.4173886 L5.77348324,19.6463765 C5.57832999,19.8417475 5.2617475,19.8418103 5.06644662,19.6465869 L5.06644661,19.6464466 L4.35355339,18.9335534 C4.15822111,18.7383614 4.15822111,18.4217789 4.35348325,18.2265167 L4.35362353,18.2265168 L10.5828927,11.9997188 L4.35348324,5.76783709 C4.15835739,5.57249347 4.15838879,5.25596508 4.35355339,5.06066017 L5.06066017,4.35355339 C5.25596508,4.15838879 5.57249347,4.15835739 5.76783709,4.35348324 L12,10.5831737 Z"/>
</svg>
